<?xml version="1.0" standalone="no"?>
<!DOCTYPE svg PUBLIC "-//W3C//DTD SVG 20010904//EN"
 "http://www.w3.org/TR/2001/REC-SVG-20010904/DTD/svg10.dtd">
<svg version="1.0" xmlns="http://www.w3.org/2000/svg"
 width="569.000000pt" height="569.000000pt" viewBox="0 0 569.000000 569.000000"
 preserveAspectRatio="xMidYMid meet">
<metadata>
Created by potrace 1.14, written by Peter Selinger 2001-2017
</metadata>
<g transform="translate(0.000000,569.000000) scale(0.100000,-0.100000)"
fill="#000000" stroke="none">
<path d="M2639 5685 c-2 -2 -31 -6 -64 -9 -95 -9 -143 -16 -250 -38 -55 -11
-110 -22 -122 -24 -12 -2 -34 -9 -48 -14 -14 -5 -25 -7 -25 -5 0 2 -12 0 -27
-6 -16 -6 -35 -12 -43 -14 -18 -4 -139 -46 -200 -70 -161 -62 -352 -161 -510
-264 -47 -31 -87 -58 -90 -62 -3 -3 -12 -10 -21 -15 -119 -67 -452 -391 -575
-559 -16 -22 -32 -42 -35 -45 -3 -3 -41 -59 -85 -125 -147 -224 -263 -473
-353 -760 -17 -52 -60 -231 -67 -271 -3 -22 -9 -57 -14 -79 -5 -22 -12 -69
-16 -105 -4 -36 -10 -74 -14 -85 -8 -24 -6 -535 4 -588 3 -20 8 -52 10 -70 14
-105 20 -141 38 -227 53 -256 152 -533 268 -751 28 -51 50 -97 50 -101 0 -4 5
-8 10 -8 6 0 10 -5 10 -10 0 -15 103 -173 183 -279 167 -222 389 -437 617
-597 365 -256 804 -430 1210 -479 30 -4 69 -9 85 -12 70 -11 494 -9 575 2 47
7 108 16 135 19 28 4 57 9 65 11 8 2 26 6 40 9 14 2 54 12 90 21 36 8 73 18
84 20 194 44 523 187 726 315 177 110 337 237 481 380 92 91 141 145 256 283
35 41 164 234 210 312 52 89 123 231 157 315 15 36 33 79 40 95 13 28 77 217
82 240 1 6 16 66 32 135 30 125 37 160 47 235 3 22 8 49 10 61 26 125 27 624
0 762 -1 9 -6 40 -9 67 -47 353 -223 810 -432 1124 -38 58 -73 112 -79 120
-65 101 -326 386 -450 490 -339 285 -753 497 -1145 586 -43 9 -169 35 -195 39
-16 2 -49 7 -72 11 -23 4 -59 9 -80 11 -46 6 -489 14 -494 9z m406 -60 c50 -4
101 -8 115 -10 14 -3 48 -7 75 -10 28 -4 70 -11 95 -16 25 -6 54 -12 65 -15
11 -2 34 -6 50 -10 17 -3 44 -10 60 -15 17 -5 71 -20 120 -35 386 -112 783
-349 1091 -651 148 -145 178 -180 276 -313 43 -58 82 -109 86 -115 62 -79 216
-369 281 -532 36 -90 108 -308 116 -350 2 -10 4 -18 5 -18 1 0 3 -12 5 -26 2
-14 8 -43 13 -65 6 -21 13 -55 16 -74 3 -19 8 -46 10 -60 40 -214 50 -574 22
-777 -3 -21 -8 -58 -11 -83 -12 -92 -19 -130 -40 -223 -3 -12 -7 -31 -9 -42
-2 -11 -11 -45 -20 -76 -9 -31 -18 -65 -21 -75 -17 -82 -112 -320 -185 -466
-195 -389 -472 -719 -823 -981 -266 -199 -586 -354 -901 -437 -177 -46 -303
-69 -483 -86 -48 -4 -380 -4 -413 0 -14 2 -56 7 -93 10 -37 4 -78 9 -90 12
-12 2 -39 6 -62 9 -22 3 -47 8 -55 10 -8 2 -28 7 -45 10 -16 3 -73 16 -125 30
-52 14 -102 27 -110 29 -8 3 -70 25 -137 49 -139 52 -321 139 -438 210 -44 26
-89 54 -100 60 -10 7 -62 43 -115 81 -495 361 -865 894 -1035 1492 -25 89 -31
112 -41 164 -3 14 -11 57 -19 95 -8 39 -16 93 -20 120 -3 28 -7 66 -10 85 -15
116 -21 424 -10 525 2 22 7 69 11 105 9 88 13 120 18 150 73 407 214 766 430
1095 276 419 663 758 1106 967 58 27 114 53 125 57 11 5 34 14 50 21 103 43
336 110 470 136 22 4 47 9 55 10 8 2 38 6 65 10 28 3 61 8 75 9 14 2 70 7 125
10 55 4 101 8 102 9 4 3 197 -3 278 -9z"/>
<path d="M2595 5471 c-84 -24 -108 -120 -49 -191 19 -22 22 -31 12 -35 -7 -2
-31 -10 -53 -17 l-40 -13 -49 -150 c-27 -82 -51 -152 -53 -155 -3 -3 -56 48
-118 113 -118 122 -131 129 -190 107 -21 -8 -27 -7 -32 6 -3 9 -2 24 4 33 14
22 6 71 -16 101 -10 14 -36 32 -59 40 -37 13 -45 12 -76 -3 -91 -43 -92 -161
-2 -205 l28 -14 -21 -19 c-11 -10 -24 -19 -28 -19 -4 0 -16 -7 -27 -15 -16
-12 -19 -32 -23 -172 -2 -87 -6 -159 -7 -160 -2 -2 -62 31 -135 72 -73 41
-137 75 -142 75 -5 0 -27 -9 -49 -20 -52 -26 -57 -25 -52 9 5 34 -23 98 -49
111 -37 20 -88 22 -119 4 -32 -19 -60 -68 -60 -104 0 -45 43 -96 89 -106 14
-3 30 -7 35 -8 4 -1 -8 -21 -28 -45 -20 -23 -36 -45 -36 -48 0 -2 14 -59 31
-126 37 -145 39 -163 19 -158 -98 22 -252 54 -276 57 -25 2 -38 -4 -65 -32
-18 -18 -36 -34 -40 -34 -4 0 -10 13 -14 29 -23 104 -162 124 -211 30 -7 -15
-14 -40 -14 -54 0 -63 71 -123 131 -111 35 7 38 -8 10 -63 l-20 -38 91 -142
c49 -78 87 -145 84 -149 -4 -3 -48 -8 -99 -9 -76 -2 -158 -8 -188 -12 -3 -1
-16 -21 -29 -46 -13 -25 -26 -45 -29 -45 -4 0 -15 15 -25 34 -30 55 -98 74
-153 41 -92 -54 -62 -198 45 -210 15 -2 42 3 60 11 l33 13 -6 -37 c-3 -20 -8
-45 -11 -55 -6 -18 10 -35 175 -191 l52 -48 -138 -47 c-76 -25 -143 -49 -150
-54 -6 -4 -17 -24 -23 -45 -6 -20 -13 -43 -16 -51 -3 -10 -11 -7 -30 12 -49
49 -126 47 -169 -5 -25 -30 -29 -43 -25 -87 7 -80 104 -123 174 -78 34 23 40
20 44 -20 2 -21 9 -46 16 -57 6 -10 67 -47 135 -81 l123 -63 -133 -96 -133
-96 -2 -58 c-1 -31 -2 -58 -3 -60 0 -2 -13 5 -29 15 -15 11 -37 18 -49 17 -13
-1 -29 -2 -37 -3 -28 -2 -75 -52 -82 -86 -8 -44 1 -68 37 -105 25 -24 39 -30
74 -30 38 0 50 6 81 37 21 21 39 33 41 28 2 -6 13 -28 26 -50 22 -40 31 -44
122 -58 142 -22 215 -40 207 -51 -5 -6 -33 -42 -63 -81 -29 -38 -56 -72 -59
-75 -3 -3 -20 -25 -39 -49 l-35 -44 15 -58 15 -57 -45 3 c-55 5 -95 -16 -116
-61 -19 -41 -19 -58 1 -100 20 -42 74 -68 121 -59 38 7 80 45 89 80 8 32 16
31 40 -1 22 -30 62 -53 86 -49 43 7 104 15 161 21 34 3 65 8 69 11 5 2 8 -1 8
-6 0 -9 -56 -158 -80 -216 -43 -98 -43 -95 -13 -139 32 -46 35 -61 13 -62 -8
-1 -24 -2 -36 -2 -44 -4 -84 -59 -84 -116 0 -51 54 -106 104 -106 20 0 50 7
65 15 33 17 65 77 56 105 -8 26 3 25 59 -6 53 -30 26 -36 249 60 l129 55 -6
-67 c-4 -38 -9 -79 -11 -92 -3 -14 -7 -63 -10 -110 l-6 -85 41 -32 40 -31 -37
-19 c-49 -24 -77 -64 -75 -108 3 -79 78 -129 155 -103 49 18 87 98 66 140 -13
25 4 30 51 13 23 -8 46 -15 50 -15 4 0 65 45 136 100 71 55 132 100 135 100 3
0 6 -6 6 -12 0 -7 8 -49 18 -93 9 -44 19 -91 21 -105 22 -126 25 -132 76 -153
26 -11 48 -22 48 -26 0 -3 -13 -18 -29 -34 -74 -69 -33 -186 68 -193 91 -5
150 88 106 166 -22 38 -19 40 40 40 l54 0 99 145 c72 105 102 142 109 132 6
-6 36 -61 68 -122 91 -172 95 -179 114 -195 10 -9 34 -15 54 -14 47 2 52 -6
28 -48 -55 -92 38 -202 137 -163 76 31 94 125 36 186 -21 21 -24 30 -13 34 8
2 32 11 54 18 36 13 42 19 61 75 12 34 20 62 18 62 -2 0 3 17 11 37 8 21 24
71 35 110 12 40 25 73 28 73 4 0 63 -54 131 -120 108 -105 127 -119 150 -114
14 3 41 8 59 11 31 4 33 3 23 -15 -15 -29 -14 -78 3 -110 18 -35 56 -55 100
-55 118 0 154 168 46 213 -17 7 -30 16 -30 21 0 4 18 18 40 30 22 13 43 32 45
44 2 11 3 88 2 170 -1 94 2 150 8 150 6 0 72 -31 148 -70 l137 -70 50 28 50
28 0 -37 c0 -53 33 -101 78 -114 48 -13 48 -13 87 6 92 43 78 180 -21 206 -24
7 -44 18 -44 25 0 7 3 13 8 13 4 0 17 15 29 33 21 31 23 43 11 77 -3 8 -18 56
-32 105 -15 50 -31 101 -37 114 -5 13 -8 25 -7 26 3 2 48 -7 255 -51 l81 -18
43 39 43 39 9 -36 c23 -99 148 -122 205 -38 32 47 24 103 -18 143 -30 26 -47
31 -102 27 l-28 -2 20 47 c22 51 26 85 10 85 -5 0 -10 4 -10 9 0 6 -34 64 -76
131 -42 67 -73 124 -70 127 8 9 13 9 132 18 176 13 174 12 203 72 l22 46 24
-35 c73 -108 234 -44 208 83 -6 29 -46 78 -67 80 -6 1 -24 3 -40 5 -16 2 -42
-4 -59 -12 l-29 -16 7 59 7 60 -116 98 c-78 66 -112 101 -104 106 7 4 69 28
138 54 131 49 160 70 160 114 0 14 4 32 9 40 8 12 12 12 26 -2 39 -40 96 -51
139 -28 29 16 67 81 62 107 -13 62 -47 100 -98 108 -27 4 -78 -12 -96 -31 -20
-19 -32 -16 -33 10 -1 32 -6 53 -16 71 -8 15 -126 74 -245 123 -21 8 -38 18
-38 22 0 3 51 43 114 89 161 118 157 113 151 174 -5 49 -5 50 17 44 98 -30
139 -19 172 47 16 33 17 45 7 77 -26 87 -123 110 -188 45 -19 -19 -37 -35 -40
-35 -2 0 -13 20 -24 44 -23 53 -23 52 -159 72 -65 9 -203 33 -206 37 -2 1 42
65 97 142 54 76 99 142 99 146 0 4 -9 28 -20 53 -20 47 -14 64 17 48 20 -10
69 1 93 21 65 53 56 153 -18 191 -66 34 -162 -18 -162 -89 0 -23 -16 -18 -42
14 -40 47 -56 51 -133 36 -63 -11 -116 -20 -196 -31 l-27 -3 54 140 c30 77 54
148 54 158 0 10 -14 37 -30 59 -18 26 -25 42 -18 43 7 1 18 2 23 4 6 1 18 3
28 3 20 2 70 49 76 72 28 107 -90 194 -174 128 -29 -23 -59 -83 -50 -98 14
-22 -7 -30 -33 -12 -55 39 -67 42 -98 26 -16 -9 -30 -15 -31 -15 -3 0 -64 -26
-156 -68 -38 -17 -72 -31 -77 -31 -4 0 -6 15 -5 33 2 17 6 93 10 168 l6 137
-40 28 c-43 31 -53 54 -23 54 39 0 85 76 76 125 -16 91 -128 126 -193 60 -22
-22 -26 -34 -26 -86 1 -60 0 -60 -25 -54 -75 19 -84 18 -126 -22 -23 -21 -59
-53 -80 -72 -21 -19 -51 -45 -66 -59 -15 -14 -30 -23 -33 -21 -2 3 -14 54 -25
115 -35 184 -33 178 -92 203 l-52 22 31 27 c61 53 59 135 -5 181 -59 42 -139
19 -165 -48 -18 -43 -16 -71 7 -107 14 -21 14 -23 -3 -29 -10 -3 -23 -5 -27
-4 -5 1 -23 1 -40 0 -28 -1 -39 -13 -119 -132 -48 -71 -91 -127 -95 -122 -4 4
-35 62 -69 128 -34 66 -68 126 -75 133 -12 12 -39 18 -94 21 l-23 1 23 31 c35
47 32 110 -7 148 -30 30 -74 42 -110 32z m256 -551 c57 -99 64 -107 82 -91 7
6 18 6 26 1 24 -14 40 0 101 88 49 70 60 81 62 61 3 -51 -2 -78 -42 -224 -38
-139 -56 -202 -81 -297 l-10 -38 -59 0 c-65 0 -64 -1 -75 80 -3 25 -8 52 -10
60 -2 8 -6 37 -10 64 -3 27 -8 52 -9 55 -2 3 -7 29 -10 56 -4 28 -9 64 -12 80
-6 31 -12 72 -18 115 -4 24 3 80 10 80 1 0 26 -41 55 -90z m-306 -267 l0 -258
-63 -17 c-63 -17 -63 -17 -72 5 -4 12 -47 103 -95 202 -47 99 -95 199 -106
221 -52 110 -32 121 56 34 59 -58 77 -71 92 -64 10 4 31 8 48 9 35 0 51 27 91
154 l17 55 16 -41 c13 -34 16 -86 16 -300z m869 225 c4 -21 7 -40 7 -43 0 -2
6 -23 14 -45 8 -22 13 -44 12 -48 -1 -4 8 -8 21 -10 12 -2 22 -8 22 -13 0 -25
46 -3 115 56 42 36 78 65 80 65 19 0 -27 -99 -133 -285 -69 -121 -129 -225
-134 -231 -6 -8 -21 -7 -56 5 -55 19 -61 25 -56 60 6 50 24 196 29 246 3 28 8
61 10 75 2 14 6 52 10 85 7 74 9 83 24 120 14 35 24 24 35 -37z m-1466 -100
c19 -32 178 -536 171 -542 -2 -1 -25 -14 -50 -29 l-47 -27 -53 61 c-30 33 -63
71 -74 83 -11 12 -49 55 -85 96 -36 40 -82 92 -103 114 -35 38 -73 103 -65
112 2 2 17 -4 33 -13 159 -85 159 -85 177 -63 9 11 23 20 31 20 19 0 26 32 29
137 2 46 6 83 10 83 3 0 15 -15 26 -32z m1995 -168 l-4 -109 26 -7 c14 -3 25
-12 25 -19 0 -7 6 -18 14 -24 11 -10 33 -4 103 25 48 20 94 39 102 42 10 4 9
-3 -4 -28 -20 -38 -25 -44 -170 -175 -120 -109 -131 -120 -197 -182 l-45 -42
-39 26 c-21 14 -43 29 -48 34 -7 6 48 164 99 284 7 17 30 74 50 128 30 79 74
157 89 157 2 0 1 -49 -1 -110z m-1238 -65 c16 -134 16 -132 0 -132 -11 0 -15
13 -16 49 0 26 -2 70 -2 98 -2 61 9 52 18 -15z m470 -37 c-6 -47 -10 -93 -9
-102 2 -17 -21 -22 -31 -6 -3 5 1 33 9 62 8 29 20 73 26 97 17 64 19 46 5 -51z
m-895 -189 c0 -4 -7 -9 -15 -13 -11 -4 -21 15 -41 82 -15 48 -28 94 -30 102
-3 8 16 -25 41 -75 24 -49 45 -93 45 -96z m-659 -113 c169 -259 160 -218 76
-311 -58 -65 -151 -198 -191 -274 -20 -39 -40 -73 -45 -75 -8 -5 -120 25 -336
89 -44 13 -100 29 -125 35 -44 11 -99 44 -90 54 3 2 48 7 100 11 52 3 99 10
103 14 7 7 8 22 6 93 0 9 -7 22 -15 29 -8 6 -14 15 -14 20 0 4 -18 37 -40 71
-73 115 -27 92 238 -121 118 -94 217 -171 220 -171 4 0 22 27 39 59 l33 59
-38 28 c-66 51 -145 120 -127 111 6 -2 50 -28 99 -58 l88 -53 25 29 c13 17 33
42 44 57 l20 27 -38 24 c-54 33 -315 187 -371 219 -58 33 -113 79 -106 90 3 5
9 6 14 3 5 -3 21 -7 37 -9 15 -2 57 -9 92 -15 45 -9 67 -9 74 -2 6 6 19 11 28
11 35 0 38 22 17 105 -11 44 -22 91 -25 105 l-6 25 32 -25 c18 -14 100 -128
182 -254z m1992 130 c-27 -71 -41 -96 -52 -94 -9 2 -15 7 -15 11 2 12 98 186
101 183 2 -2 -13 -46 -34 -100z m-620 50 c226 -24 417 -88 612 -204 408 -243
694 -695 741 -1172 8 -87 9 -250 0 -329 -8 -82 -41 -245 -60 -299 -9 -23 -16
-46 -17 -50 -6 -30 -70 -174 -107 -242 -34 -64 -123 -197 -165 -248 -81 -98
-222 -223 -347 -307 -123 -83 -384 -191 -505 -209 -22 -3 -51 -8 -65 -11 -103
-22 -388 -22 -470 0 -8 2 -31 6 -50 9 -135 20 -394 124 -511 206 -20 14 -47
32 -59 40 -151 102 -336 301 -433 465 -140 238 -220 527 -220 795 0 146 23
328 55 435 6 22 12 42 13 45 3 15 28 88 35 105 27 60 102 214 117 240 82 138
254 332 378 426 57 44 200 138 210 139 3 1 42 18 87 39 141 66 314 113 464
127 38 4 70 7 71 8 4 3 173 -3 226 -8z m1399 -162 c-33 -98 -34 -108 -19 -119
9 -7 17 -22 17 -34 0 -11 5 -21 10 -22 27 -3 48 -2 85 4 22 4 63 9 90 13 l50
6 -30 -30 c-30 -30 -474 -272 -499 -272 -3 0 -21 21 -40 47 l-34 47 45 55 c24
31 50 63 56 71 7 8 61 76 120 150 87 109 165 190 183 190 1 0 -14 -48 -34
-106z m-2610 12 c44 -46 113 -131 113 -140 0 -19 -32 -18 -38 1 -3 10 -26 48
-51 86 -44 65 -52 82 -24 53z m2211 -180 c-58 -71 -70 -82 -82 -70 -8 7 -13
15 -10 17 2 1 37 33 77 70 40 37 75 67 78 67 3 0 -26 -38 -63 -84z m760 -253
c-10 -16 -37 -57 -61 -92 l-42 -64 20 -22 c11 -12 20 -35 20 -53 0 -21 5 -32
15 -33 8 -1 18 -2 23 -3 4 -1 41 -8 82 -16 41 -8 78 -15 83 -16 4 -1 10 -2 15
-3 4 0 -11 -10 -33 -20 -22 -11 -98 -29 -170 -41 -71 -12 -132 -23 -135 -25
-3 -1 -34 -6 -69 -9 -36 -4 -67 -9 -71 -11 -7 -4 -30 -8 -100 -19 -35 -5 -35
-5 -56 53 l-20 59 20 12 c12 7 112 80 223 162 111 82 213 153 225 158 42 16
50 12 31 -17z m-383 -58 c-7 -9 -15 -13 -19 -10 -3 3 1 10 9 15 21 14 24 12
10 -5z m-35 -23 c-34 -30 -135 -102 -143 -102 -5 0 -12 6 -15 13 -3 9 22 28
72 55 72 39 107 53 86 34z m-2997 -298 c46 -13 62 -22 62 -35 0 -17 -2 -17
-37 -2 -21 8 -42 19 -48 23 -5 4 -27 13 -47 19 -20 7 -42 19 -49 27 -11 14 -9
14 22 0 19 -8 62 -23 97 -32z m-223 -79 l240 -109 -13 -56 -14 -55 -261 1
c-244 0 -327 6 -327 22 0 4 45 24 101 45 86 33 100 42 96 58 -3 10 -1 22 4 25
21 13 4 40 -68 110 l-78 75 40 -3 c25 -2 133 -45 280 -113z m3215 -60 c0 -5
-5 -3 -10 5 -5 8 -10 20 -10 25 0 6 5 3 10 -5 5 -8 10 -19 10 -25z m220 -19
c0 -4 -93 -34 -112 -36 -4 0 -23 -7 -42 -15 -45 -19 -54 -19 -58 3 -3 14 11
20 87 33 98 18 125 21 125 15z m420 -40 c0 -2 -31 -29 -69 -59 -94 -76 -104
-88 -92 -100 7 -7 5 -19 -4 -37 -18 -35 -9 -43 103 -95 96 -45 96 -55 2 -57
-31 -1 -61 2 -205 17 -16 2 -66 6 -110 10 -44 4 -83 9 -87 11 -3 2 -31 5 -62
5 -31 1 -58 4 -60 8 -2 3 -7 37 -10 75 -4 38 -9 74 -12 80 -3 6 1 3 9 -7 14
-17 29 -13 268 67 215 71 329 100 329 82z m-3672 -245 c6 0 12 -8 12 -16 0
-17 -40 -16 -144 4 -25 5 -48 6 -51 3 -3 -3 -5 -1 -5 4 0 7 127 11 188 5z
m-323 -126 c22 -3 49 -7 60 -9 21 -4 112 -17 155 -22 13 -1 45 -6 71 -9 l46
-7 1 -44 c1 -25 4 -50 8 -56 4 -6 3 -8 -3 -5 -9 6 -111 -19 -163 -40 -8 -3
-19 -7 -25 -8 -5 -2 -64 -20 -130 -41 -66 -21 -122 -38 -125 -39 -3 -1 -25 -7
-50 -15 -55 -16 -72 -18 -93 -11 -13 5 3 21 62 66 72 54 111 103 111 138 0 7
-41 34 -90 60 -50 27 -90 50 -90 52 0 15 74 20 140 8 41 -7 93 -15 115 -18z
m3505 -80 c25 -2 60 -4 78 -4 17 -1 32 -4 32 -8 0 -5 -47 -9 -105 -11 -85 -3
-105 -1 -105 11 0 21 10 27 34 21 12 -2 41 -7 66 -9z m476 -155 c28 -11 27
-12 -71 -54 -57 -25 -100 -49 -100 -57 -1 -8 -7 -25 -14 -38 -12 -22 -11 -26
16 -50 16 -14 53 -47 82 -73 l53 -48 -41 0 c-23 0 -49 4 -59 10 -30 16 -450
180 -463 180 -8 0 -10 14 -5 52 4 29 9 55 12 57 5 5 40 7 249 16 82 4 151 7
152 8 8 8 167 5 189 -3z m-3620 -87 c-1 -1 -20 -5 -42 -8 -21 -4 -50 -8 -64
-11 -14 -2 -47 -6 -75 -9 l-50 -5 50 15 c28 8 77 23 110 33 54 17 61 17 66 3
4 -9 6 -17 5 -18z m54 -198 l17 -50 -136 -92 c-75 -51 -179 -122 -232 -158
-53 -35 -111 -68 -128 -71 l-33 -7 61 85 c58 81 74 118 50 118 -6 0 -8 9 -4
20 6 20 -3 66 -11 57 -3 -3 -41 3 -85 13 -44 10 -82 18 -84 19 -3 1 -13 1 -22
1 -16 1 -16 2 2 16 23 17 73 31 135 39 25 3 84 12 131 20 47 8 106 17 132 20
25 3 65 10 89 15 84 17 99 11 118 -45z m2983 4 c75 -31 135 -60 112 -55 -198
46 -186 42 -179 61 8 19 5 19 67 -6z m-4 -175 c58 -14 114 -27 124 -29 10 -2
26 -6 35 -9 9 -3 28 -7 42 -10 159 -31 271 -68 255 -84 -4 -4 -10 -7 -13 -8
-36 -4 -151 -16 -164 -18 -27 -3 -31 -12 -35 -73 -2 -36 1 -62 10 -72 7 -9 30
-44 50 -78 37 -65 33 -78 -16 -51 -20 10 -139 103 -192 150 -11 9 -52 43 -91
75 -39 32 -88 73 -110 90 -21 18 -42 33 -46 33 -9 0 -68 -98 -68 -113 1 -6 35
-38 76 -71 41 -32 73 -61 70 -64 -3 -2 -13 1 -22 9 -18 14 -45 31 -84 51 -14
7 -27 15 -30 19 -3 3 -14 9 -24 12 -20 8 -38 -6 -70 -56 -10 -15 -22 -27 -27
-27 -5 0 11 26 35 58 53 69 73 102 128 210 23 45 46 82 51 82 5 0 57 -12 116
-26z m-2895 -46 c-4 -7 -192 -98 -202 -98 -3 0 28 21 69 47 41 26 76 50 79 53
14 18 45 28 52 17 4 -6 5 -14 2 -19z m118 -186 c41 -63 92 -125 155 -189 23
-24 38 -43 34 -43 -4 0 -18 11 -31 25 -13 14 -28 25 -34 25 -6 0 -42 -29 -81
-65 -38 -35 -74 -65 -80 -65 -7 0 -6 3 0 8 6 4 30 32 55 62 25 30 53 64 62 74
16 18 15 21 -34 72 l-51 53 -75 -92 c-42 -51 -78 -94 -81 -97 -3 -3 -22 -25
-42 -50 -20 -25 -45 -55 -55 -67 -11 -12 -37 -44 -59 -71 -40 -50 -95 -90 -95
-71 0 17 52 162 66 184 12 19 11 76 -2 97 -6 9 -31 8 -176 -7 -84 -9 -27 38
142 117 74 35 178 84 230 110 52 26 100 47 105 47 6 0 27 -26 47 -57z m2931
-414 c25 -30 21 -37 -15 -28 -18 5 -53 11 -79 14 -25 3 -52 8 -61 11 -20 8
-118 -24 -119 -39 -1 -6 0 -15 1 -21 1 -5 3 -18 5 -28 2 -9 6 -21 9 -25 3 -5
8 -22 11 -38 7 -36 10 -44 20 -67 4 -10 5 -20 2 -23 -12 -12 -59 31 -104 95
-26 36 -51 71 -56 76 -4 6 -42 57 -83 115 -41 58 -84 116 -94 130 -27 34 -26
40 21 91 l41 45 241 -144 c133 -79 250 -153 260 -164z m-2610 74 c20 -13 37
-26 37 -27 0 -4 -63 -139 -113 -245 -19 -41 -53 -113 -75 -160 -21 -47 -50
-95 -64 -108 l-25 -23 3 28 c2 15 6 65 9 111 6 81 6 82 -19 92 -14 5 -32 7
-39 4 -8 -3 -18 6 -25 21 -14 30 -12 30 -139 -20 -46 -19 -83 -31 -83 -29 0
23 45 75 135 154 59 52 121 108 138 123 18 16 59 52 91 80 32 29 64 57 70 63
8 9 17 5 36 -14 14 -13 42 -36 63 -50z m1987 -60 l53 -77 -72 75 c-72 75 -76
82 -64 93 10 11 27 -8 83 -91z m-148 -74 c33 -35 118 -122 189 -194 71 -73
129 -136 129 -142 0 -6 3 -18 6 -26 4 -12 -22 -3 -87 29 -51 25 -99 45 -106
45 -7 0 -18 -12 -23 -26 -7 -17 -15 -24 -25 -20 -23 8 -29 -13 -31 -104 -4
-133 -2 -124 -18 -111 -23 19 -43 68 -127 314 l-79 232 22 17 c13 10 27 18 31
18 5 0 15 7 23 15 9 8 20 15 25 15 6 0 37 -28 71 -62z m-1660 10 c2 -7 -20
-49 -49 -93 -29 -44 -53 -77 -53 -74 0 3 18 45 40 93 38 83 53 100 62 74z
m219 -101 l36 -16 -9 -62 c-4 -35 -10 -82 -13 -106 -2 -24 -7 -58 -10 -76 -3
-17 -7 -54 -10 -82 -3 -27 -8 -70 -11 -95 -4 -25 -7 -58 -8 -75 -2 -16 -11
-46 -21 -65 l-18 -35 -23 98 c-22 98 -38 132 -56 121 -5 -3 -22 6 -38 21 l-29
28 -90 -67 c-133 -97 -123 -66 74 231 155 234 135 218 226 180z m1173 -65 c16
-48 31 -94 33 -102 2 -8 -18 28 -45 80 -46 87 -50 110 -22 110 3 0 18 -40 34
-88z m-183 -4 c8 -18 51 -103 96 -188 136 -260 143 -274 143 -291 0 -32 -13
-27 -64 21 -28 26 -63 58 -77 69 l-27 21 -28 -23 c-16 -12 -42 -22 -59 -22
-29 0 -31 -4 -62 -90 -17 -49 -34 -94 -36 -100 -3 -5 -10 4 -17 20 -13 30 -16
83 -22 405 l-3 175 60 17 c81 22 79 22 96 -14z m-789 6 c4 -3 -2 -36 -13 -72
-11 -37 -21 -78 -24 -91 -8 -42 -18 -37 -11 6 3 24 9 66 12 95 3 29 8 56 11
61 5 8 17 9 25 1z m306 -39 c4 -3 9 -29 38 -195 17 -91 19 -103 28 -165 3 -22
12 -72 20 -112 13 -71 12 -118 -5 -129 -5 -3 -9 -1 -9 5 0 13 -91 164 -104
173 -5 4 -18 2 -29 -3 -14 -8 -26 -5 -52 15 -18 14 -40 24 -47 21 -7 -3 -38
-41 -68 -85 -30 -44 -58 -80 -62 -80 -15 0 -8 66 18 160 34 129 93 338 105
376 l10 32 77 -5 c42 -3 78 -6 80 -8z m189 -102 c4 -134 -2 -133 -22 2 -4 22
-10 54 -15 72 -7 26 -5 33 8 36 10 2 19 2 22 0 2 -2 5 -52 7 -110z"/>
<path d="M1645 3132 c-16 -2 -35 -42 -98 -210 -42 -114 -77 -212 -77 -218 0
-6 19 -10 42 -10 43 1 56 13 72 69 5 14 18 17 94 17 l88 0 13 -44 13 -45 46 3
c34 2 46 7 44 17 -7 32 -145 405 -153 413 -8 9 -48 13 -84 8z m61 -189 c13
-37 23 -72 21 -77 -3 -9 -94 -13 -102 -4 -3 2 7 39 22 81 14 43 28 75 31 73 2
-3 15 -36 28 -73z"/>
<path d="M1963 3130 c-21 -5 -21 -9 -22 -221 l0 -216 47 1 47 1 1 217 0 216
-25 4 c-15 2 -36 1 -48 -2z"/>
<path d="M2363 3132 c-13 -2 -23 -6 -24 -10 -1 -10 -1 -350 0 -392 1 -35 2
-36 46 -37 l45 -2 1 37 c1 20 2 60 2 88 l0 52 70 -1 c84 -1 98 -16 96 -96 -3
-63 8 -75 67 -77 42 -1 45 0 38 20 -6 19 -12 68 -13 124 -1 13 -12 33 -25 46
l-25 22 24 18 c30 22 49 77 40 115 -8 39 -44 78 -79 87 -29 7 -223 11 -263 6z
m237 -92 c6 -8 10 -30 10 -48 0 -41 -24 -52 -112 -49 l-63 2 -1 50 c0 28 1 53
2 56 2 3 37 5 79 5 55 -1 79 -6 85 -16z"/>
<path d="M2795 3130 c-1 -3 -2 -102 -1 -220 l1 -215 170 0 170 0 0 35 0 35
-124 5 -124 5 -1 49 c-1 29 4 50 11 53 7 3 56 6 110 6 l98 2 0 35 0 35 -110 5
c-106 5 -109 6 -108 28 0 12 1 33 2 45 1 24 2 24 104 22 56 -1 109 2 118 6 16
8 20 51 7 65 -8 7 -319 12 -323 4z"/>
<path d="M3334 3105 c-13 -29 -154 -404 -154 -409 0 -2 21 -2 48 -2 46 1 47 2
62 44 l14 42 89 0 c75 0 88 -3 93 -17 23 -70 23 -71 67 -68 23 2 46 4 50 4 5
1 5 6 2 12 -4 5 -40 100 -80 210 -40 110 -75 202 -77 205 -3 2 -26 5 -53 7
-44 3 -48 1 -61 -28z m90 -164 c14 -41 24 -77 21 -79 -6 -6 -97 -4 -103 3 -3
2 8 39 23 80 15 42 29 75 30 73 2 -2 15 -36 29 -77z"/>
<path d="M3687 3132 c-12 -2 -17 -14 -18 -35 0 -36 0 -325 1 -373 l0 -31 123
2 c130 3 162 10 197 47 38 41 53 88 54 173 0 64 -4 89 -22 122 -27 51 -68 82
-121 89 -47 7 -191 10 -214 6z m225 -98 c29 -27 40 -60 39 -126 0 -101 -34
-138 -126 -138 l-62 0 2 143 c1 78 3 143 3 143 1 1 29 0 62 -1 43 -2 67 -8 82
-21z"/>
<path d="M4118 3125 c0 -5 -2 -103 -3 -217 -1 -139 2 -208 9 -211 6 -1 27 -3
46 -2 l35 0 3 218 c2 170 0 217 -10 218 -65 4 -78 3 -80 -6z"/>
<path d="M2098 2893 c-2 -5 -5 -23 -7 -40 -3 -36 -5 -35 84 -35 94 0 91 -1 89
35 -1 17 -2 35 -3 40 0 4 -37 7 -80 7 -44 0 -81 -3 -83 -7z"/>
<path d="M3123 2472 l-42 -3 0 -68 0 -68 54 0 c41 0 55 4 55 15 0 10 -9 12
-40 8 -31 -4 -40 -2 -40 9 0 19 28 34 51 28 13 -4 19 0 19 10 0 10 -8 16 -22
15 -39 -2 -48 2 -48 16 0 10 11 14 37 13 20 -1 38 3 40 9 5 15 -13 20 -64 16z"/>
<path d="M1739 2405 c-21 -52 -24 -65 -12 -69 7 -3 16 1 19 9 7 18 61 20 66 3
5 -15 38 -19 38 -4 0 7 -4 16 -8 22 -5 5 -17 30 -26 57 -25 67 -45 62 -77 -18z
m53 1 c2 -12 -3 -20 -15 -21 -9 -2 -16 0 -14 3 2 4 7 16 11 26 7 22 13 19 18
-8z"/>
<path d="M1867 2423 c1 -27 2 -57 2 -69 1 -11 8 -21 16 -21 12 0 15 15 15 69
0 58 -3 68 -17 68 -15 0 -18 -8 -16 -47z"/>
<path d="M1987 2463 c-3 -7 -2 -83 2 -120 0 -7 7 -13 15 -13 10 0 13 8 10 24
-3 18 1 26 16 31 27 9 40 -1 40 -31 0 -15 6 -24 16 -24 14 0 16 7 11 39 -2 22
0 44 5 49 6 6 6 17 -1 31 -10 17 -21 21 -61 21 -27 0 -51 -3 -53 -7z m87 -29
c7 -18 -41 -31 -57 -15 -9 9 -9 14 0 19 21 13 51 11 57 -4z"/>
<path d="M2430 2449 c0 -16 -4 -19 -19 -14 -23 7 -61 -26 -61 -52 0 -34 18
-48 63 -49 l43 -2 1 69 c1 53 -2 69 -13 69 -8 0 -14 -9 -14 -21z m0 -68 c-1
-17 -19 -31 -33 -25 -20 7 -22 35 -5 52 10 10 15 9 25 -5 7 -9 13 -19 13 -22z"/>
<path d="M2965 2460 c-3 -5 -3 -15 0 -20 4 -6 -3 -9 -17 -6 -31 5 -58 -21 -58
-54 0 -36 17 -48 65 -47 l40 1 0 68 c0 46 -4 68 -12 68 -6 0 -15 -4 -18 -10z
m-2 -64 c3 -8 -1 -22 -9 -33 -14 -17 -14 -17 -28 0 -18 23 -10 47 14 47 10 0
20 -6 23 -14z"/>
<path d="M3465 2460 c-3 -5 3 -10 15 -10 12 0 18 5 15 10 -3 6 -10 10 -15 10
-5 0 -12 -4 -15 -10z"/>
<path d="M3705 2403 l0 -68 40 -3 c42 -3 65 14 65 50 0 27 -35 57 -58 51 -15
-3 -20 0 -19 13 1 10 -5 20 -13 21 -13 3 -15 -9 -15 -64z m70 -23 c0 -29 -30
-40 -37 -13 -7 27 2 44 21 41 10 -2 16 -13 16 -28z"/>
<path d="M3830 2400 c0 -56 3 -70 15 -70 12 0 15 14 15 70 0 56 -3 70 -15 70
-12 0 -15 -14 -15 -70z"/>
<path d="M3529 2453 c-1 -5 -1 -11 0 -15 0 -5 -4 -8 -10 -8 -6 0 -7 -5 -2 -12
4 -7 9 -22 9 -33 1 -11 2 -28 3 -37 0 -11 9 -18 21 -18 20 0 26 11 13 24 -11
11 -11 50 0 57 5 4 3 16 -4 28 -14 21 -28 28 -30 14z"/>
<path d="M2151 2427 c-44 -22 -34 -97 14 -97 30 0 55 10 55 22 0 5 -16 6 -36
2 -29 -5 -36 -4 -32 7 3 9 17 13 36 11 28 -2 32 1 32 23 0 14 -8 29 -19 35
-24 12 -21 12 -50 -3z m39 -24 c0 -7 -9 -13 -20 -13 -12 0 -17 5 -14 13 3 8
11 14 19 14 8 0 15 -6 15 -14z"/>
<path d="M2263 2430 c-13 -5 -23 -14 -23 -20 0 -13 27 -13 35 0 7 12 25 4 25
-11 0 -5 -10 -9 -23 -9 -32 0 -48 -19 -37 -41 7 -12 21 -17 52 -17 l43 1 -1
39 c-3 60 -23 77 -71 58z m33 -77 c-3 -3 -13 -2 -23 2 -17 7 -17 8 2 15 19 7
34 -5 21 -17z"/>
<path d="M2493 2380 c19 -52 20 -62 7 -70 -8 -5 -11 -12 -7 -17 16 -15 41 15
63 75 13 34 20 64 15 66 -9 6 -29 -13 -30 -27 0 -4 -4 -15 -9 -23 -8 -14 -11
-11 -16 12 -7 27 -21 43 -38 44 -4 0 3 -27 15 -60z"/>
<path d="M2673 2428 c-35 -17 -27 -30 15 -23 27 5 33 4 22 -4 -8 -6 -23 -11
-32 -11 -18 0 -33 -33 -23 -49 3 -5 25 -9 49 -8 l43 1 -3 44 c-1 24 -4 45 -6
47 -12 10 -47 12 -65 3z m41 -63 c-4 -8 -12 -15 -20 -15 -17 0 -18 17 -1 23
22 9 27 7 21 -8z"/>
<path d="M2773 2424 c-8 -22 2 -87 15 -92 9 -3 12 6 10 32 -2 40 4 51 27 43
10 -4 15 -19 15 -43 0 -24 4 -34 13 -32 14 5 22 77 9 90 -14 14 -83 16 -89 2z"/>
<path d="M3226 2424 c-20 -14 -21 -68 -1 -84 8 -7 24 -10 35 -7 11 3 21 1 21
-4 1 -5 2 -13 3 -18 2 -17 17 -26 24 -14 5 9 8 107 3 133 -2 10 -70 5 -85 -6z
m52 -61 c-15 -18 -26 -16 -38 6 -8 15 -6 24 7 36 15 16 17 15 29 -7 9 -16 9
-27 2 -35z"/>
<path d="M3344 2427 c-3 -8 -4 -32 -2 -53 l3 -39 47 0 47 -1 -1 49 c0 39 -3
47 -16 45 -11 -2 -16 -14 -16 -38 -1 -25 -6 -36 -18 -38 -15 -3 -18 4 -18 37
0 41 -16 64 -26 38z"/>
<path d="M3469 2428 c-6 -80 -1 -107 18 -95 15 9 10 100 -5 105 -6 2 -12 -2
-13 -10z"/>
<path d="M3594 2419 c-16 -18 -16 -19 4 -19 12 0 22 4 22 10 0 5 7 7 15 4 19
-8 9 -24 -14 -24 -31 0 -43 -23 -25 -48 12 -17 19 -20 34 -12 10 5 26 7 34 4
14 -5 16 2 14 40 0 26 -6 50 -11 53 -22 14 -57 10 -73 -8z m54 -51 c-3 -7 -13
-15 -24 -17 -16 -3 -17 -1 -5 13 16 19 34 21 29 4z"/>
<path d="M3896 2421 c-20 -22 -21 -55 0 -75 20 -20 58 -21 74 -1 11 13 8 15
-20 13 -19 -2 -35 2 -37 9 -3 8 7 11 31 9 32 -3 36 -1 36 19 0 37 -58 55 -84
26z m52 -26 c-3 -3 -13 -2 -22 1 -14 5 -15 9 -4 15 13 8 36 -6 26 -16z"/>
<path d="M2031 2232 c-26 -49 -48 -122 -39 -128 6 -4 15 1 20 10 11 20 64 21
72 1 7 -19 26 -20 26 0 0 28 -41 123 -55 129 -8 3 -19 -3 -24 -12z m33 -73
c-10 -17 -32 2 -26 23 5 20 6 20 18 3 7 -10 11 -22 8 -26z"/>
<path d="M2902 2242 c-22 -3 -23 -7 -20 -70 l3 -67 44 2 c51 2 69 17 72 58 5
59 -31 87 -99 77z m52 -28 c23 -9 21 -71 -1 -82 -31 -16 -43 -3 -43 44 0 45 8
52 44 38z"/>
<path d="M3204 2239 c-5 -8 -10 -41 -9 -74 l0 -59 35 -2 c49 -3 70 11 70 46 0
34 -26 63 -51 57 -13 -3 -21 3 -26 20 -7 20 -11 22 -19 12z m66 -84 c0 -32
-20 -42 -36 -20 -9 12 -10 23 -3 36 13 24 39 13 39 -16z"/>
<path d="M2205 2176 c1 -62 8 -86 21 -74 3 4 6 35 7 69 2 51 -1 64 -14 67 -13
2 -15 -8 -14 -62z"/>
<path d="M2550 2214 c-6 -14 -7 -31 -3 -37 4 -7 6 -24 4 -39 -3 -29 13 -45 25
-26 5 7 7 25 5 40 -1 14 3 29 9 33 8 5 8 11 -1 21 -9 11 -9 14 0 14 7 0 9 5 6
10 -11 19 -35 10 -45 -16z"/>
<path d="M3025 2230 c3 -5 13 -10 21 -10 8 0 14 5 14 10 0 6 -9 10 -21 10 -11
0 -17 -4 -14 -10z"/>
<path d="M2132 2210 c-7 -12 -8 -20 -2 -20 5 0 10 -18 10 -40 0 -43 21 -63 43
-41 8 8 8 11 -2 11 -9 0 -12 13 -11 43 2 23 2 48 1 55 -2 19 -25 14 -39 -8z"/>
<path d="M3440 2215 c0 -8 -6 -15 -12 -15 -10 0 -10 -2 0 -9 8 -4 12 -14 11
-22 -9 -43 27 -89 46 -59 3 6 1 10 -4 10 -6 0 -11 16 -11 35 0 19 5 35 10 35
6 0 5 8 -2 20 -15 23 -38 27 -38 5z"/>
<path d="M2270 2195 c-17 -21 -7 -29 19 -16 12 7 22 7 25 2 4 -5 -9 -14 -28
-21 -19 -6 -33 -16 -32 -23 4 -28 19 -37 54 -34 35 2 37 4 40 40 2 21 -1 44
-7 50 -14 18 -57 19 -71 2z m48 -57 c-6 -18 -28 -21 -28 -4 0 9 7 16 16 16 9
0 14 -5 12 -12z"/>
<path d="M2386 2197 c-24 -18 -11 -44 26 -52 22 -5 27 -10 19 -18 -9 -9 -17
-8 -32 1 -25 16 -37 8 -19 -13 15 -18 61 -20 78 -3 21 21 13 37 -25 54 -21 9
-33 18 -26 21 7 2 22 -1 33 -7 28 -15 36 -7 15 14 -20 19 -45 21 -69 3z"/>
<path d="M2621 2188 c-25 -39 -1 -88 42 -88 27 0 57 32 57 61 0 43 -76 64 -99
27z m57 -55 c-20 -19 -38 -9 -38 22 0 29 31 38 44 13 7 -14 5 -23 -6 -35z"/>
<path d="M2744 2160 c1 -53 19 -69 24 -23 2 15 13 36 24 47 22 21 16 35 -7 16
-10 -8 -15 -9 -15 -1 0 6 -6 11 -14 11 -10 0 -13 -13 -12 -50z"/>
<path d="M3029 2208 c-1 -1 -2 -22 -3 -46 -2 -49 9 -75 23 -53 12 19 7 94 -7
99 -7 2 -12 2 -13 0z"/>
<path d="M3091 2196 c-9 -11 -9 -16 0 -21 6 -4 15 -2 19 5 4 7 13 9 19 6 19
-12 12 -21 -15 -23 -32 -1 -46 -21 -33 -44 7 -13 20 -17 49 -16 l40 1 0 43 c0
32 -5 45 -19 53 -27 14 -46 13 -60 -4z m49 -55 c0 -14 -18 -23 -30 -16 -6 4
-8 11 -5 16 8 12 35 12 35 0z"/>
<path d="M3330 2195 c-41 -49 4 -112 64 -89 26 10 18 24 -11 22 -16 -2 -29 2
-30 7 -2 6 5 10 15 11 44 3 50 5 48 19 -5 35 -65 56 -86 30z m50 -14 c0 -12
-20 -25 -27 -18 -7 7 6 27 18 27 5 0 9 -4 9 -9z"/>
<path d="M3524 2202 c-34 -22 -34 -85 1 -98 23 -9 62 4 69 22 5 12 2 15 -11 9
-41 -17 -53 -17 -53 -2 0 10 8 16 23 15 38 -2 47 2 47 16 0 33 -48 57 -76 38z
m44 -30 c2 -6 -6 -10 -17 -9 -22 1 -26 8 -14 21 9 9 26 3 31 -12z"/>
<path d="M3633 2203 c-14 -5 -18 -52 -5 -54 40 -4 60 -14 49 -26 -4 -3 -19 -1
-33 6 -22 10 -25 9 -22 -6 6 -35 88 -28 88 7 0 17 -37 47 -50 41 -2 -1 -6 3
-9 10 -2 7 2 10 10 7 8 -4 22 -9 32 -13 20 -8 23 8 5 22 -14 10 -46 13 -65 6z"/>
<path d="M2474 2009 c-3 -6 -7 -36 -8 -66 -2 -42 2 -57 15 -63 15 -8 17 -2 17
60 0 67 -9 93 -24 69z"/>
<path d="M2767 2014 c-8 -8 1 -24 14 -24 5 0 9 7 9 15 0 15 -12 20 -23 9z"/>
<path d="M2955 2012 c-6 -4 -10 -35 -11 -69 -1 -55 1 -63 17 -63 12 0 18 7 17
18 -3 40 3 62 17 62 8 0 16 -4 16 -10 1 -5 3 -23 4 -40 4 -43 4 -44 18 -31 14
11 16 69 2 90 -4 7 -18 11 -31 8 -13 -2 -25 0 -25 4 -1 5 -2 13 -3 18 -2 15
-11 20 -21 13z"/>
<path d="M3080 1996 c0 -8 -5 -16 -12 -18 -7 -3 -8 -9 -3 -18 5 -8 9 -26 10
-40 2 -33 12 -50 31 -50 15 0 19 12 7 24 -11 11 -14 54 -4 60 5 3 7 15 4 25
-6 23 -33 37 -33 17z"/>
<path d="M2529 1976 c-1 -1 -3 -22 -5 -48 -3 -41 0 -48 15 -48 14 0 17 7 15
35 -2 19 1 37 7 41 17 10 38 -16 33 -42 -6 -32 4 -48 20 -35 12 10 13 72 1 91
-5 7 -78 12 -86 6z"/>
<path d="M2663 1973 c-7 -2 -13 -15 -13 -28 0 -17 7 -24 30 -28 17 -4 30 -11
30 -16 0 -10 -19 -9 -35 1 -6 4 -17 3 -24 -2 -11 -6 -9 -10 6 -18 28 -15 61
-11 80 10 14 16 13 19 -22 40 -38 22 -34 39 4 18 23 -12 28 -1 9 18 -12 12
-43 15 -65 5z"/>
<path d="M2769 1978 c-1 -2 -3 -27 -4 -55 -2 -46 0 -51 13 -44 20 11 24 101 5
101 -7 0 -14 -1 -14 -2z"/>
<path d="M2830 1965 c-13 -15 -17 -72 -6 -82 3 -3 19 -6 36 -7 16 -1 28 -5 26
-11 -1 -5 -18 -9 -37 -7 -26 3 -31 1 -22 -8 15 -16 59 -16 76 -1 9 7 14 31 13
68 l-1 58 -36 2 c-23 2 -41 -2 -49 -12z m58 -29 c2 -9 -2 -24 -9 -32 -12 -14
-14 -14 -26 1 -9 13 -9 23 -2 37 12 22 32 19 37 -6z"/>
<path d="M3147 1973 c-17 -17 -5 -45 23 -54 35 -13 42 -34 8 -24 -34 11 -36
11 -39 0 -4 -16 49 -31 69 -19 19 13 29 53 13 55 -6 1 -15 3 -21 4 -5 1 -14 3
-20 4 -5 0 -10 6 -10 12 0 7 11 8 30 4 31 -7 42 8 14 19 -21 8 -59 8 -67 -1z"/>
</g>
</svg>
