<svg class="icon-logo" width="112" height="37" viewBox="0 0 112 37" fill="black" xmlns="http://www.w3.org/2000/svg">
			    <path  d="M2.75731 0H9.89013L9.52285 1.80695L9.44034 2.21085C9.19282 3.44117 8.96659 4.66086 8.759 5.89118H1.60488C1.93757 3.90886 2.32349 1.94513 2.75731 0ZM7.68109 36.1948H0.524316C0.178321 32.5596 0 28.8713 0 25.1432C0 19.5443 0.399225 14.0357 1.17372 8.64944H8.3305H11.5802L10.7897 10.8576H8.03507C7.45486 15.5398 7.15677 20.3069 7.15677 25.1432C7.15411 28.8713 7.33243 32.5596 7.68109 36.1948ZM104.552 19.9349C104.267 14.8462 102.497 12.3005 99.242 12.3005C95.8433 12.3005 94.0255 14.8436 93.7886 19.9349H104.552ZM111.658 23.8942H93.7194C93.7194 29.2991 96.144 32.0016 100.988 32.0016C103.522 32.0016 106.22 31.3506 109.084 30.0458L110.263 34.1938C107.131 35.953 103.599 36.8325 99.6652 36.8325C95.2285 36.8325 91.8297 35.5437 89.469 32.9662C87.1881 30.4869 86.049 27.0059 86.049 22.5284C86.049 18.1625 87.1349 14.6815 89.304 12.088C91.6328 9.30579 94.9437 7.91603 99.242 7.91603C103.397 7.91603 106.537 9.13306 108.658 11.5671C110.657 13.8763 111.655 17.1288 111.658 21.322V23.8942ZM84.4281 15.2953C82.2883 15.2953 80.4864 15.9065 79.0226 17.1341C77.1489 18.7046 76.2147 20.9606 76.2147 23.8969V36.1974H68.5895V8.64944H76.0258V14.3759C76.4037 12.7124 77.2128 11.2669 78.4557 10.0419C79.8077 8.72119 81.3035 8.06218 82.9403 8.06218C83.6004 8.06218 84.0981 8.10735 84.4254 8.20302V15.2953H84.4281ZM54.63 26.5834C54.63 22.9536 53.0969 21.1386 50.0256 21.1386C46.893 21.1386 45.328 22.9695 45.328 26.6286C45.328 29.9741 46.893 31.6482 50.0256 31.6482C53.0969 31.6482 54.63 29.9608 54.63 26.5834ZM62.0635 36.1948H55.1969L54.7258 32.5676C54.0338 33.8404 52.9 34.8369 51.327 35.5597C49.9271 36.2028 48.4313 36.5243 46.8424 36.5269C40.689 36.5269 37.615 33.3621 37.615 27.0298C37.615 24.0138 38.637 21.6276 40.6837 19.8658C42.6186 18.2024 45.1204 17.368 48.1891 17.368C50.8639 17.368 52.9958 18.1545 54.5847 19.725V16.0712C54.5847 13.8258 52.9399 12.7018 49.653 12.7018C46.7413 12.7018 44.2075 13.2758 42.0517 14.421L41.3677 10.0844C44.5934 8.73447 47.9975 8.05952 51.5879 8.05952C58.5743 8.05952 62.0662 11.421 62.0662 18.1465V36.1948H62.0635ZM34.7805 34.619C33.9607 35.1531 32.7098 35.6554 31.0278 36.1283C29.359 36.5987 27.975 36.8352 26.8732 36.8352C17.1321 36.8352 12.2642 32.0043 12.2642 22.3424C12.2642 17.8011 13.5311 14.2669 16.0648 11.7372C18.5959 9.19418 22.1384 7.92134 26.6842 7.92134C30.0191 7.92134 32.6007 8.55643 34.4265 9.82927L33.7159 14.4476C32.2361 13.2864 30.2772 12.7044 27.8393 12.7044C23.0087 12.7044 20.5947 15.9649 20.5947 22.4832C20.5947 28.672 22.7186 31.7678 26.9663 31.7678C27.975 31.7678 29.202 31.5871 30.6472 31.2257C32.111 30.8669 33.1889 30.4737 33.8809 30.0485L34.7805 34.619Z"></path>
			</svg>